<mxfile host="65bd71144e" pages="2">
    <diagram id="5_w8dhCrDCzhFcYL5Gm4" name="image-1">
        <mxGraphModel dx="-6365" dy="3504" grid="0" gridSize="10" guides="0" tooltips="1" connect="1" arrows="1" fold="1" page="0" pageScale="1" pageWidth="827" pageHeight="1169" math="0" shadow="0">
            <root>
                <mxCell id="0"/>
                <mxCell id="1" parent="0"/>
                <mxCell id="7" value="" style="verticalLabelPosition=bottom;verticalAlign=top;html=1;shadow=0;dashed=0;strokeWidth=1;shape=mxgraph.ios.iBgFlat;fillColor=#FFFFFF;strokeColor=#000000;opacity=50;" parent="1" vertex="1">
                    <mxGeometry x="8571" y="-2416" width="971" height="308" as="geometry"/>
                </mxCell>
                <mxCell id="8" style="edgeStyle=orthogonalEdgeStyle;rounded=0;orthogonalLoop=1;jettySize=auto;html=1;entryX=0;entryY=0.5;entryDx=0;entryDy=0;strokeColor=#000000;exitX=1;exitY=0.5;exitDx=0;exitDy=0;exitPerimeter=0;" parent="1" source="195" target="205" edge="1">
                    <mxGeometry relative="1" as="geometry"/>
                </mxCell>
                <mxCell id="200" value="Sim" style="edgeLabel;html=1;align=center;verticalAlign=middle;resizable=0;points=[];" vertex="1" connectable="0" parent="8">
                    <mxGeometry x="-0.7181" y="1" relative="1" as="geometry">
                        <mxPoint x="-6" y="1" as="offset"/>
                    </mxGeometry>
                </mxCell>
                <mxCell id="196" style="edgeStyle=none;html=1;entryX=0.5;entryY=0;entryDx=0;entryDy=0;entryPerimeter=0;" edge="1" parent="1" source="9" target="195">
                    <mxGeometry relative="1" as="geometry"/>
                </mxCell>
                <mxCell id="9" value="&lt;div style=&quot;font-size: 14px; line-height: 19px;&quot;&gt;Validar Request&lt;/div&gt;" style="rounded=0;whiteSpace=wrap;html=1;" parent="1" vertex="1">
                    <mxGeometry x="8630" y="-2368.9999999999995" width="120" height="60" as="geometry"/>
                </mxCell>
                <mxCell id="10" style="edgeStyle=orthogonalEdgeStyle;rounded=0;orthogonalLoop=1;jettySize=auto;html=1;entryX=0.53;entryY=0.99;entryDx=0;entryDy=0;entryPerimeter=0;" parent="1" source="11" target="19" edge="1">
                    <mxGeometry relative="1" as="geometry"/>
                </mxCell>
                <mxCell id="11" value="&lt;div style=&quot;font-size: 14px; line-height: 19px;&quot;&gt;Registrar Operação&lt;/div&gt;" style="rounded=0;whiteSpace=wrap;html=1;fontFamily=Helvetica;" parent="1" vertex="1">
                    <mxGeometry x="8974" y="-2371.9999999999995" width="120" height="60" as="geometry"/>
                </mxCell>
                <mxCell id="12" style="edgeStyle=orthogonalEdgeStyle;rounded=0;orthogonalLoop=1;jettySize=auto;html=1;entryX=0;entryY=0.5;entryDx=0;entryDy=0;" parent="1" source="14" target="15" edge="1">
                    <mxGeometry relative="1" as="geometry"/>
                </mxCell>
                <mxCell id="203" style="edgeStyle=none;html=1;entryX=0;entryY=0.5;entryDx=0;entryDy=0;" edge="1" parent="1" source="14" target="201">
                    <mxGeometry relative="1" as="geometry"/>
                </mxCell>
                <mxCell id="14" value="&lt;div style=&quot;font-size: 14px; line-height: 19px;&quot;&gt;Enviar evento de notificação &lt;/div&gt;" style="rounded=0;whiteSpace=wrap;html=1;fontFamily=Helvetica;" parent="1" vertex="1">
                    <mxGeometry x="9147" y="-2369" width="120" height="54" as="geometry"/>
                </mxCell>
                <mxCell id="15" value="topic-event" style="shape=image;verticalLabelPosition=bottom;verticalAlign=top;imageAspect=0;aspect=fixed;image=data:image/png,iVBORw0KGgoAAAANSUhEUgAAAT4AAACfCAMAAABX0UX9AAAAh1BMVEX+/v7///8AAAD7+/sEBAT4+PgICAjV1dXq6urt7e3FxcX19fUZGRmQkJDx8fFjY2OKioohISHd3d3l5eXHx8ezs7ODg4Nubm5YWFh0dHRKSkodHR0wMDCYmJiioqIWFhY8PDwlJSVcXFw5OTmpqalQUFDQ0NAqKiq9vb2lpaV8fHxFRUVycnLtZs8nAAAUUElEQVR4nO1diXaiShDtxUYUgwriEtdoNEbn/7/v1daIozEucV4SqZnkKGALl+pablUTpUq5WrT+v8/gR0sJ301SwneTHIVP63xz4WUph1LCd5OU8N0kXwzOp2iXt+OUlPDdJCV8N0kJXykXSKkLN0kJ301SwneblPCVUspvkf3ATB++3U+Ij+4/fcDJL/tBceHRky3hO1dK+G6SEr6b5EedbCmllFJKKaWUUsoxuTCeeajw5+9I9fghZ+Pxw0Ldm+WL4Xs0+VL44DD7FSf1c+QM+M4ZA4fR1gJ61qrHVNirrZZ8zOLnLcD4kOjdSBnAR12tmtScfUTs1A3wOYDMpu/zoQEZ9bJQO+u++ux+r7hIp62GyeVtHLkSvrPFqvqbMRUU+m3Mc/KQ8/dKeRXwKh5E0+iU+H0q6C6U0xODsNF/+mfwp6MfKAS8zmsgfFZ1AK7AT1v6hfgtQvc4+F0Nn3XRTGZuhR1HRX5vtHuYCXw1fEqL4QuM6U+y7GlheAJXTPVxpu8p9D6GFtGLZ6Jy04zSjnhseBKbwcMon5cLKQOkCKoS7E07lLA5hZ6EJvBb/Gj4XQ6fHouxG+uI6BYb2R5PXrMq4Tt9OPxvMnwvqbUWPw6/OzSdA5OV8J0+HH76JkC05pqZKtS+lJLfwDyV8J0+HJTtmeH7k8NnbW3EcXS3hO/04fCz5Mk7J57UInwqbTN8pfZ9erjuMXzt0G+0diWBc277tJBhWj7DgdJj0oIFQQzGErhMMGbhakdPNq128PnD8x9VtvETfCvBqr3C/Bfd76uwBu04P86iALCodFbe2BI+rZybyVR9WWOlQ7sxJyEV09PsTBROaOTwXbWerasRRTcOwWR1PfkNv3mpBM3ESU4TNCf19XiBIQttqFLKyzYuUvG6OWWg+1kMEz1y6rw1g//iQv4fYcZlS8pWCQKexQG8QPQGXO8g+Kx9XezIfDN6d4hewQ5+/A2/HD5OMipCkrIeInm1SCxFgmQOw55nAjmdM/P0PAP4I+E796Q1g0Mcgaf7KF8LTNDRgh5YvXRr/pZRosDV2N9FaeUhxdnwATw6D15y/Mx0Td6WDrK1rQkK6PIRo9T+NvSugM8SgFl7H79ZVUeOi5WQAw8QvT34kF1tOvvb6Pwr4CMTptNBw6uVMS/jmGIWnrx6TbWQwtzmspJ51dHvhO+aTybjJUEzbb6GShWmpesbXz0ar6ud1ox0D2Qb21+Welx/MRAEpxTXPYOxK/oEcMwVdrfNFOloHW6MhDjZ54HLz5KrLwbncMo6ReAV4OsKfE2MEdHcaY/fptQ+/0GIXxg+1L7iDrflCvA0VdT9Z5WLRzyZ32J1mJMJIWNvgtXlTYfw0uIJaeo9vGXMe0oBvv1boOM2B4UbRhUjbf0kTiQ98FHa8WVae3WyS5Sj1XHSycZPId4wR/FBpL9v29LH8CUB130z7Uk+a+vio6uH8CXzeX/e7zfD650Y6l51wExGFYZZLedzHDK+UaXvKOfAZz1HyrUk2Jgcwid1z+n18IFELRwjgG9N4MzqPOSwpr4ZfP7iNXXmJlOEaUso5U6B4EP8JorzW5y8WQ7f39YW4cMwpxFeaYbRQkQ945uVqkoKf8a0o1su9R4i5CcmD+mk2ZCgefBaQx7Q4Q6roxdDADZ1FDmyRE57Ojo9Bd91p4Q5+Ltv9jJ0g747fMpWB1NJJxjBp5R8AAJr+5KydSAeZD46EeV7jg58/VfABzfMdyxNq98cPkhcdfwUmLwxktmB0SvzUeABm2SEKmabAKQQtujas1Bb3cOw+Wb4YLLWDXcsvUySBMNMD9+36xlB+CKdPO/SXclp4eUgpLmbbcmG46ZZnXqIOkt/6Opz+PIC3e6d1Ov2xR+guG2EAs06rpMA+OoF7SsczgFmcWh2bfwdvjR4T8gRPl1t77i+IrGyDAGMOW8VzuD56XXcJzIfMepHh1nHIXzKZzBkCtgriQc9SnhZSGpImhjnHcJHUSEe6PbYWrv7mvw1Box3hk9XG7nmFVkVDGFSvJAgIDNewQbUwk74qauT8ImK2MhxFuhwtYOW6/PKYveF9opjeuIj9+GDOCZyNuLxcEGF9thZ5ZdGsdPjre5K9SvOiL8XbuU74CvDmUetkmPI7ZEVv5ErIbvecdHSFrLNn2mf1fk8tUIP4iVBSrHOsnoSIynriljC4U3+4jFtcwXXwdlgfjzt5VAHNtWqMGLWSSJkPJyfvRekeXvLYs6CD0YfGC4RVXK98kUNXqWAcDWW/tVukjNbehI+NkJJt9vdwP9Bx/KCJWs7G1932j6lcKnZYIMHrTXyjt3ugs9k2YKNqS3Ch2MCeqsNHd8arET3tO0M/JDLcQjjvMN+kPUF+F0Mn2Uq1LvcxaS+6qw3Q64H7Zqdm4kdcA7gEcWNTtNkOwkfnHzNX9Y8lsrdqlmwAaYxsT6M7MJlr/IdTOpgWlgIXGiWpjMZoBejAYSb0umbgrQzq2VD64L+4ovhg7PZwmkGFbRvb1nECh+Nd3UjzELQxNnJNJ/JtKuFIeCRtYN78MEHYwpyAvIzGPVY9eQNhP+CP4opMbhW7nmoeAXHpG0PPgo8a0v2ZaYZWRehnWuZ3B6zi9touUVP12rfGUcDfGs+U7i8ZSqGHX6vXshhUEFoEmnnIpiDgyC/vZVBVZNVPvy2InyAetQUW7CsERfgbM/rFbOIcOtM94k3MXyFDv8KZx3edcRwuyMV9/Hk4KA5ko/gReJmwelVWG+f/vBNuLBH7EL4ZNoEuIqDUwoMLyLdCYzAN8FUjVylSya92cvwZdYcJxoPOrB7B/BpNxB9fQ6JcLBqI+tvivgFI9HoQseN18FqET5Me1yP/RjeEITPwR3Kg4IKV1zBmrf/BXxxw39rx6uTJX7y1Z9OEy6bJh35uzhMw9hq6Rj6BD5wui3DCcQipBiOI2JfaRcIA1EYD99w6rsdhtNpuwgfTN4YXJ2susMh8axae8Gqvy1iZO4L38oXgf5ov4moXRuNxJhMIwylJFnwYTx1Dh0nRHfwQTAxlvL7KMFLhSCb2BvYgMZivO7Ux3OTd9QQfMqlaSp2q1WD10g7C3wvMFmRqA3Q2MxSDp1RXSWKN/Nxvb7GsJ5u2f21j7qDSNZFq7njkyvMV15yAh6+muX1NnBtoEKWNEXhxKMemmVdUqtqwWe2mDfzcd8TB8EF+HD1HSgr+rmEbAdYlbk/0WUVjT98fjXfzeb79cfiybXkxNu1IvI4g+t+Gqyvg28aSkyEjYNMNVhcQkLht9lQ7wfNPTXegw+trIdP2b2k7SVGnjFA9BsJ6jLPH5EuHQrGEYxyKzcO94VPskuziJXdg8+GHr4LFyd4+Nq1VYPRg8zfcfkDa3boKUwTLj6SNC3OCycMn1M77ePKVA6fWgfodAMzzC213ogxHVic2j7t89d1T/jg/0C+ZRbvz3tra7Q9uAo+vKK31YjiSbQLEi47Wv6FSUyY0y5oR2OfNrL2qTxm81S4wLdYDdkYwA3xXxe9STtYqHd1OOvChbnK9l1yoVzC5ckb79PGVkoW12kffmw6Eg+5zhkSxSwrLhcRcoTgQ+o/2GmfsvvwieeFoYYj4W3XyhW/DfdN0D7kZ+p85HBn+MY+WE/+hu/Vw3fhqnIPX4VZ10rGHW40prdTiRZLQUVPmL9DU/kQPtG+io/pTJDpyK+U1Rz2m2liVY4pxl5p41/AJ9+O7MY+fKrpga0di05OjMr6YAS/LjV8yL6MUdrGfgtPXqWfC7ZPfTB5cTxSvpamzlbeNWFcn+3eoz/AKy2/bvIez+VwW+Lhe6s5joM1d4HnDm3mqMJPkjO97nTYbHLOwQyru4YP7yOaRRqJwpdNnvN+DF+ufSPf9cpDVji4L95S1One/hgnsSmyA2fDh15ebf0c7cI9FXWAGxktjUROT1qISewx7Uxa3dZknXLa8WHOSxaujdoH4S1V5/bg62l7AB/Bcxo+M51yejF3rgAffXKz31di/xF8vq0UrvNVOeZrMcIdCHpwYjE9Egc7oHtvopHt3krbSH2Y86KMMgrxArwyD58E6X37N3z9M+Cr0JCGtTSHb8y7+vsnAbvnXwffcVtFmpYGYqVA/2LmhJVO55QZsFqO3nGdmwoHfp4Trs1ER0eH5rgPZm2tZShKw+4ENkve0jbCYvcg7mifM3nNm91wxdmsOV/UynvYUVS8lzB6+Ham7fMlhVPwffRBi+ybZ5XNYpJiGaH6tCv5sqmvK91pm2KeDzFsRg07B431Hr5pjEwf5R9V8YleMU292OtjLZFUxpz2vCAvjgoLGDZTDo2a4210p9jQaSlpqtydMoCADALMilc0M902+7NCOaMiZMgmC3bYecm0syfJ+lXAN+GZPa22tRfGfl5o6sW8rVegDE7BF+l6wPgtI4rztA7lZHroz3IS3eHcvT9lgOZ/LYzFrntZXvjfvPVv/ALkuNyh99jBh/k934Gunxyepc926geOam3O1L7Igq3js2txB5xVfTnVutoFSA5z48reGHeAj+us6PvzKkahxoEBanfKcAbEkxQB5ESJBzgK3xB3iktg2oHSC+4CCXY0jtXJyA/8ie1rg85inzWdXx0fMgP/3iVIH1V3t0QnL37Iu4bNihYlbMy+ZvliEFx1uDHsWrwavs1GO5XscqntKHxIl9raUOi9hA1tOOKOBdOocxERrZfP7s6ADz6RCmP4kjpSlZDvUGDeOuz4YMzO8F8wLvhDVdMxTdgCZ8sRLxX5qv2CG+lVazZe5XBPU3dQhd6vtHHIAdGf5eRjYvzKuV4H+c7aqmt27P2n8GGolRl+Zk8f66Q8nX1XSSdEY97pmX/C9zF8EBDr9cLsKG4BclnVxNBH2cznbxPJIDJfNIJE/WPbR3taci8oKrdavDFp91t/3h8xusacAx+4DsRrw+bEjBX3K22N+BMe8o3tzd0ZF4GQsrGwFfCFVPwkncQILP6oP3LJY83dFk4Jn4C99sc8L545w2fjpWjWGpCGg6uBsCte06XUUYBPfwhfjI4mirdCvNS5K6EzFf3zQ3LMWhH4Luomv8B1FODDhKwlT8/Ab31+rVFUQpGJW/D0HcWy3ANyOsnxwT8cq/Ma45s0Il2dyrVjqOYodN75ddH0UbOgfQd8X95dCvBhoRffEkIvIS+IejU7/LwHXDxfNXkvh08xOQ/TOJlQc+5oneYtXvg7lR6OlqeZABRfIzne24waxdqnuVMUL2gZU+uOXje86lEJE/Wu0+LpjMkY3sqj8IG3iOS9//a58BZZxesvDw0avpIk6ZIug4/gO6d6jml2SEAt99IY39ssreEcbHt9MIeP6Mwpg1B0O2/kbSlk6J1K5qJ9UqMcrXV+rdybK/CN+ZlQynrtizhKt9bHj2M+c11delPAtmdUz2/BOesjtGcfjx96VvMBWDnWs+X+OlOdyHzI/GCWHphIUj3S2zycDhvD6SjUXHaw6RbrtcMhpSmYa0XZ3OQy7IKud6cNkOCJl77oHowAb8ekOfh4xqAxHMKQMSeJcAcW+AEYlp5aBoNG2fNuyEY3xDGmw2EDecxz0LsZPp0vyloW0h/ckU55so21J/x8Z/0BSY2HR2ENJZQlSKBvMb2vhRG1K6J6uep4sB29jJab1xQ7N2L6TBhz/5qqpfxWaEHrUngDGxxTjDZS9BW1NEUul/svYcjedtTmIcFM8BFhdEaPy1fAhzmPrOvY7/nU0Rtr31a6NrWKPB2EVPTB0Jobh/gWkKuRp0lon2jRGbkojqVfTW6LlWdz5A/dYRFMuS4iRIccIGZG834NNypyWk7Jj/m58TsK38cdVscHAJuNKyrBxitp1ORPaeV7SN4h6cc6AsSJYvznRxnTM9X9on6ms+T2Ic9pUDsuMLFSSmuX3LOZnwtnqph6dWi1h8YGLIZvrI8/CeLLgflXch18PNnSV5q8i/r+mgKdvhmO/IInLDMk44aECdNqCR8KWp/Vn6EPnBZdiOciX521zMlwx8CyuWwb3yI1YGt17Cx+PHyXiNW1rinKcAIOwpcY8XF+RUKB4zpMJDhs/dor+ImSbPeoeEh+e7FvhHeF5+Tkgin6WpXwoRBjuVu2QfkAtr5KjcI6bjUz+zLWDw8fx1LIYQT5/KwIXdpzzN9aes7L1DdS+mLb5P8+928gmjpDNuQLfK2DXkiSKyGn1bbalF28b9tRh2WihxMt7a1+vcFo3h8aX/t4CyMfvkOe5LLdc6xmr7TQ6tHR41XkPc/zzav4iMP1wq8cmMjjDzX9OR6lq9lg3p9v3leYIUel9lF+mshDDU3LcaklbsqGbU4d8EJo7UV9sBjyx8uldKlWOXvSk+Tb2lAe07Kj84Q5VZ/TEz9broDPd5iuLP2JNlQrH6esi3nLvnz9qX8HuRw+NWdTt6WnafKi5VTaKyY5fMpDqPJXvxHBc/ijwjt8wQ8mMD0tDyPl2UtpbfnQdd54Gj42fbIeG4s1BF+lhM9vPAGf/4MTs4gafrQ8aIQimfcSvk8/4V1HnRtEkCgYC6nycH+r7Qr4pOfTLGOpO9hEHmQaPNyfCrzCH2IljWiCJi/BtclCwubnR0PvCvio56ZCS4hnWViL03HbkyvZPc7wW8sVPS4qqeQ9Yu3FIsh7rWbuVyZmXyiaHsrYohabQJ6Hmz9wpK6+3TO3vplIy89cOiC5A1e6+Vo6ejjbd6EQd6J1uNytX/frFLpWfd8nrd5Nrqu01ZrUsim1Dmyea1n9gJbvukTeaTuRNRfsN2Z1+sO9v+2R9J/KlfBBuhaO879n8pzhwzd/JyF6Wq7v2FE6WmVPg+44Sx63iHE1fNh37On4h5uzudzQnOvkieouX4D7eHK99inln9lgH+ePQv8tD2u1vkZK+G6SEr6b5J/At995edbxdz2fHyYXtk3/0qLm1VLCd5OU8JVSSimllFKKSOnjbpISvpukhK+UUn6s/AdXUeFVlFaZFwAAAABJRU5ErkJggg==;strokeColor=#0000FF;" parent="1" vertex="1">
                    <mxGeometry x="9228" y="-2546" width="112.84" height="56.42" as="geometry"/>
                </mxCell>
                <mxCell id="16" value="" style="ellipse;html=1;shape=endState;fillColor=#000000;strokeColor=#33FF33;" parent="1" vertex="1">
                    <mxGeometry x="9483" y="-2356.9999999999995" width="30" height="30" as="geometry"/>
                </mxCell>
                <mxCell id="17" value="" style="group;strokeColor=none;fillColor=none;fontSize=11;fontColor=#000000;" parent="1" vertex="1" connectable="0">
                    <mxGeometry x="8976" y="-2525.9999999999995" width="108" height="65.50025484351714" as="geometry"/>
                </mxCell>
                <mxCell id="18" value="" style="group" parent="17" vertex="1" connectable="0">
                    <mxGeometry width="108" height="65.50025484351714" as="geometry"/>
                </mxCell>
                <mxCell id="19" value="tb_negocio" style="shape=cylinder;whiteSpace=wrap;html=1;boundedLbl=1;backgroundOutline=1;" parent="18" vertex="1">
                    <mxGeometry width="108" height="57.000000000000014" as="geometry"/>
                </mxCell>
                <mxCell id="21" value="" style="edgeStyle=orthogonalEdgeStyle;rounded=0;orthogonalLoop=1;jettySize=auto;html=1;strokeColor=#000000;entryX=0;entryY=0.5;entryDx=0;entryDy=0;" parent="1" source="11" target="14" edge="1">
                    <mxGeometry relative="1" as="geometry">
                        <mxPoint x="9030" y="-2341" as="sourcePoint"/>
                        <mxPoint x="9186" y="-2341.9999999999995" as="targetPoint"/>
                    </mxGeometry>
                </mxCell>
                <mxCell id="207" style="edgeStyle=none;html=1;" edge="1" parent="1" source="46" target="9">
                    <mxGeometry relative="1" as="geometry"/>
                </mxCell>
                <mxCell id="46" value="" style="sketch=0;html=1;dashed=0;whitespace=wrap;fillColor=#2875E2;strokeColor=#ffffff;points=[[0.005,0.63,0],[0.1,0.2,0],[0.9,0.2,0],[0.5,0,0],[0.995,0.63,0],[0.72,0.99,0],[0.5,1,0],[0.28,0.99,0]];verticalLabelPosition=bottom;align=center;verticalAlign=top;shape=mxgraph.kubernetes.icon;prIcon=api" parent="1" vertex="1">
                    <mxGeometry x="8399" y="-2375" width="60.42" height="70" as="geometry"/>
                </mxCell>
                <mxCell id="198" style="edgeStyle=none;html=1;entryX=0.5;entryY=0;entryDx=0;entryDy=0;" edge="1" parent="1" source="195" target="197">
                    <mxGeometry relative="1" as="geometry"/>
                </mxCell>
                <mxCell id="199" value="Não" style="edgeLabel;html=1;align=center;verticalAlign=middle;resizable=0;points=[];" vertex="1" connectable="0" parent="198">
                    <mxGeometry x="-0.2796" relative="1" as="geometry">
                        <mxPoint as="offset"/>
                    </mxGeometry>
                </mxCell>
                <mxCell id="195" value="&lt;font style=&quot;font-size: 12px;&quot;&gt;Válido?&lt;/font&gt;" style="strokeWidth=2;html=1;shape=mxgraph.flowchart.decision;whiteSpace=wrap;" vertex="1" parent="1">
                    <mxGeometry x="8651" y="-2264" width="78" height="60" as="geometry"/>
                </mxCell>
                <mxCell id="197" value="" style="ellipse;html=1;shape=endState;fillColor=#000000;strokeColor=#33FF33;" vertex="1" parent="1">
                    <mxGeometry x="8675" y="-2165.9999999999995" width="30" height="30" as="geometry"/>
                </mxCell>
                <mxCell id="204" style="edgeStyle=none;html=1;" edge="1" parent="1" source="201" target="16">
                    <mxGeometry relative="1" as="geometry"/>
                </mxCell>
                <mxCell id="201" value="&lt;div style=&quot;font-size: 14px; line-height: 19px;&quot;&gt;Retornar ID&lt;/div&gt;" style="rounded=0;whiteSpace=wrap;html=1;fontFamily=Helvetica;" vertex="1" parent="1">
                    <mxGeometry x="9321" y="-2369" width="120" height="54" as="geometry"/>
                </mxCell>
                <mxCell id="206" style="edgeStyle=none;html=1;entryX=0;entryY=0.5;entryDx=0;entryDy=0;" edge="1" parent="1" source="205" target="11">
                    <mxGeometry relative="1" as="geometry"/>
                </mxCell>
                <mxCell id="209" style="edgeStyle=none;html=1;fontSize=12;" edge="1" parent="1" source="205" target="208">
                    <mxGeometry relative="1" as="geometry"/>
                </mxCell>
                <mxCell id="205" value="&lt;div style=&quot;font-size: 14px; line-height: 19px;&quot;&gt;&lt;div style=&quot;line-height: 19px;&quot;&gt;Recuperar Dados&lt;/div&gt;&lt;/div&gt;" style="rounded=0;whiteSpace=wrap;html=1;fontFamily=Helvetica;" vertex="1" parent="1">
                    <mxGeometry x="8805" y="-2371.9999999999995" width="120" height="60" as="geometry"/>
                </mxCell>
                <mxCell id="208" value="&lt;div style=&quot;line-height: 19px;&quot;&gt;&lt;div style=&quot;line-height: 19px;&quot;&gt;nome-componente&lt;/div&gt;&lt;div style=&quot;line-height: 19px;&quot;&gt;/v1/{path}&lt;/div&gt;&lt;/div&gt;" style="rounded=0;whiteSpace=wrap;html=1;fillColor=#0050ef;strokeColor=#001DBC;fontColor=#ffffff;fontFamily=Helvetica;" vertex="1" parent="1">
                    <mxGeometry x="8806" y="-2505" width="120" height="42" as="geometry"/>
                </mxCell>
            </root>
        </mxGraphModel>
    </diagram>
    <diagram id="uJZn_rI6DZq7x-BaHNoZ" name="image-2">
        <mxGraphModel dx="-5402" dy="4268" grid="1" gridSize="10" guides="1" tooltips="1" connect="1" arrows="1" fold="1" page="1" pageScale="1" pageWidth="850" pageHeight="1100" math="0" shadow="0">
            <root>
                <mxCell id="0"/>
                <mxCell id="1" parent="0"/>
                <mxCell id="r7BYOUneLajMH-3O8QyP-1" value="" style="verticalLabelPosition=bottom;verticalAlign=top;html=1;shadow=0;dashed=0;strokeWidth=1;shape=mxgraph.ios.iBgFlat;fillColor=#FFFFFF;strokeColor=#000000;opacity=50;" vertex="1" parent="1">
                    <mxGeometry x="8571" y="-2416" width="971" height="308" as="geometry"/>
                </mxCell>
                <mxCell id="r7BYOUneLajMH-3O8QyP-2" style="edgeStyle=orthogonalEdgeStyle;rounded=0;orthogonalLoop=1;jettySize=auto;html=1;entryX=0;entryY=0.5;entryDx=0;entryDy=0;strokeColor=#000000;exitX=1;exitY=0.5;exitDx=0;exitDy=0;exitPerimeter=0;" edge="1" parent="1" source="r7BYOUneLajMH-3O8QyP-21" target="r7BYOUneLajMH-3O8QyP-27">
                    <mxGeometry relative="1" as="geometry"/>
                </mxCell>
                <mxCell id="r7BYOUneLajMH-3O8QyP-3" value="Sim" style="edgeLabel;html=1;align=center;verticalAlign=middle;resizable=0;points=[];" vertex="1" connectable="0" parent="r7BYOUneLajMH-3O8QyP-2">
                    <mxGeometry x="-0.7181" y="1" relative="1" as="geometry">
                        <mxPoint x="-6" y="1" as="offset"/>
                    </mxGeometry>
                </mxCell>
                <mxCell id="r7BYOUneLajMH-3O8QyP-4" style="edgeStyle=none;html=1;entryX=0.5;entryY=0;entryDx=0;entryDy=0;entryPerimeter=0;" edge="1" parent="1" source="r7BYOUneLajMH-3O8QyP-5" target="r7BYOUneLajMH-3O8QyP-21">
                    <mxGeometry relative="1" as="geometry"/>
                </mxCell>
                <mxCell id="r7BYOUneLajMH-3O8QyP-5" value="&lt;div style=&quot;font-size: 14px; line-height: 19px;&quot;&gt;Validar Request&lt;/div&gt;" style="rounded=0;whiteSpace=wrap;html=1;" vertex="1" parent="1">
                    <mxGeometry x="8630" y="-2368.9999999999995" width="120" height="60" as="geometry"/>
                </mxCell>
                <mxCell id="r7BYOUneLajMH-3O8QyP-6" style="edgeStyle=orthogonalEdgeStyle;rounded=0;orthogonalLoop=1;jettySize=auto;html=1;" edge="1" parent="1" source="r7BYOUneLajMH-3O8QyP-7" target="r7BYOUneLajMH-3O8QyP-15">
                    <mxGeometry relative="1" as="geometry"/>
                </mxCell>
                <mxCell id="r7BYOUneLajMH-3O8QyP-7" value="&lt;div style=&quot;font-size: 14px; line-height: 19px;&quot;&gt;Registrar Operação&lt;/div&gt;" style="rounded=0;whiteSpace=wrap;html=1;fontFamily=Helvetica;" vertex="1" parent="1">
                    <mxGeometry x="8974" y="-2371.9999999999995" width="120" height="60" as="geometry"/>
                </mxCell>
                <mxCell id="r7BYOUneLajMH-3O8QyP-8" style="edgeStyle=orthogonalEdgeStyle;rounded=0;orthogonalLoop=1;jettySize=auto;html=1;entryX=0;entryY=0.5;entryDx=0;entryDy=0;" edge="1" parent="1" source="r7BYOUneLajMH-3O8QyP-10" target="r7BYOUneLajMH-3O8QyP-11">
                    <mxGeometry relative="1" as="geometry"/>
                </mxCell>
                <mxCell id="r7BYOUneLajMH-3O8QyP-9" style="edgeStyle=none;html=1;entryX=0;entryY=0.5;entryDx=0;entryDy=0;" edge="1" parent="1" source="r7BYOUneLajMH-3O8QyP-10" target="r7BYOUneLajMH-3O8QyP-24">
                    <mxGeometry relative="1" as="geometry"/>
                </mxCell>
                <mxCell id="r7BYOUneLajMH-3O8QyP-10" value="&lt;div style=&quot;font-size: 14px; line-height: 19px;&quot;&gt;Enviar evento de notificação &lt;/div&gt;" style="rounded=0;whiteSpace=wrap;html=1;fontFamily=Helvetica;" vertex="1" parent="1">
                    <mxGeometry x="9147" y="-2369" width="120" height="54" as="geometry"/>
                </mxCell>
                <mxCell id="r7BYOUneLajMH-3O8QyP-11" value="topic-event" style="shape=image;verticalLabelPosition=bottom;verticalAlign=top;imageAspect=0;aspect=fixed;image=data:image/png,iVBORw0KGgoAAAANSUhEUgAAAT4AAACfCAMAAABX0UX9AAAAh1BMVEX+/v7///8AAAD7+/sEBAT4+PgICAjV1dXq6urt7e3FxcX19fUZGRmQkJDx8fFjY2OKioohISHd3d3l5eXHx8ezs7ODg4Nubm5YWFh0dHRKSkodHR0wMDCYmJiioqIWFhY8PDwlJSVcXFw5OTmpqalQUFDQ0NAqKiq9vb2lpaV8fHxFRUVycnLtZs8nAAAUUElEQVR4nO1diXaiShDtxUYUgwriEtdoNEbn/7/v1daIozEucV4SqZnkKGALl+pablUTpUq5WrT+v8/gR0sJ301SwneTHIVP63xz4WUph1LCd5OU8N0kXwzOp2iXt+OUlPDdJCV8N0kJXykXSKkLN0kJ301SwneblPCVUspvkf3ATB++3U+Ij+4/fcDJL/tBceHRky3hO1dK+G6SEr6b5EedbCmllFJKKaWUUsoxuTCeeajw5+9I9fghZ+Pxw0Ldm+WL4Xs0+VL44DD7FSf1c+QM+M4ZA4fR1gJ61qrHVNirrZZ8zOLnLcD4kOjdSBnAR12tmtScfUTs1A3wOYDMpu/zoQEZ9bJQO+u++ux+r7hIp62GyeVtHLkSvrPFqvqbMRUU+m3Mc/KQ8/dKeRXwKh5E0+iU+H0q6C6U0xODsNF/+mfwp6MfKAS8zmsgfFZ1AK7AT1v6hfgtQvc4+F0Nn3XRTGZuhR1HRX5vtHuYCXw1fEqL4QuM6U+y7GlheAJXTPVxpu8p9D6GFtGLZ6Jy04zSjnhseBKbwcMon5cLKQOkCKoS7E07lLA5hZ6EJvBb/Gj4XQ6fHouxG+uI6BYb2R5PXrMq4Tt9OPxvMnwvqbUWPw6/OzSdA5OV8J0+HH76JkC05pqZKtS+lJLfwDyV8J0+HJTtmeH7k8NnbW3EcXS3hO/04fCz5Mk7J57UInwqbTN8pfZ9erjuMXzt0G+0diWBc277tJBhWj7DgdJj0oIFQQzGErhMMGbhakdPNq128PnD8x9VtvETfCvBqr3C/Bfd76uwBu04P86iALCodFbe2BI+rZybyVR9WWOlQ7sxJyEV09PsTBROaOTwXbWerasRRTcOwWR1PfkNv3mpBM3ESU4TNCf19XiBIQttqFLKyzYuUvG6OWWg+1kMEz1y6rw1g//iQv4fYcZlS8pWCQKexQG8QPQGXO8g+Kx9XezIfDN6d4hewQ5+/A2/HD5OMipCkrIeInm1SCxFgmQOw55nAjmdM/P0PAP4I+E796Q1g0Mcgaf7KF8LTNDRgh5YvXRr/pZRosDV2N9FaeUhxdnwATw6D15y/Mx0Td6WDrK1rQkK6PIRo9T+NvSugM8SgFl7H79ZVUeOi5WQAw8QvT34kF1tOvvb6Pwr4CMTptNBw6uVMS/jmGIWnrx6TbWQwtzmspJ51dHvhO+aTybjJUEzbb6GShWmpesbXz0ar6ud1ox0D2Qb21+Welx/MRAEpxTXPYOxK/oEcMwVdrfNFOloHW6MhDjZ54HLz5KrLwbncMo6ReAV4OsKfE2MEdHcaY/fptQ+/0GIXxg+1L7iDrflCvA0VdT9Z5WLRzyZ32J1mJMJIWNvgtXlTYfw0uIJaeo9vGXMe0oBvv1boOM2B4UbRhUjbf0kTiQ98FHa8WVae3WyS5Sj1XHSycZPId4wR/FBpL9v29LH8CUB130z7Uk+a+vio6uH8CXzeX/e7zfD650Y6l51wExGFYZZLedzHDK+UaXvKOfAZz1HyrUk2Jgcwid1z+n18IFELRwjgG9N4MzqPOSwpr4ZfP7iNXXmJlOEaUso5U6B4EP8JorzW5y8WQ7f39YW4cMwpxFeaYbRQkQ945uVqkoKf8a0o1su9R4i5CcmD+mk2ZCgefBaQx7Q4Q6roxdDADZ1FDmyRE57Ojo9Bd91p4Q5+Ltv9jJ0g747fMpWB1NJJxjBp5R8AAJr+5KydSAeZD46EeV7jg58/VfABzfMdyxNq98cPkhcdfwUmLwxktmB0SvzUeABm2SEKmabAKQQtujas1Bb3cOw+Wb4YLLWDXcsvUySBMNMD9+36xlB+CKdPO/SXclp4eUgpLmbbcmG46ZZnXqIOkt/6Opz+PIC3e6d1Ov2xR+guG2EAs06rpMA+OoF7SsczgFmcWh2bfwdvjR4T8gRPl1t77i+IrGyDAGMOW8VzuD56XXcJzIfMepHh1nHIXzKZzBkCtgriQc9SnhZSGpImhjnHcJHUSEe6PbYWrv7mvw1Box3hk9XG7nmFVkVDGFSvJAgIDNewQbUwk74qauT8ImK2MhxFuhwtYOW6/PKYveF9opjeuIj9+GDOCZyNuLxcEGF9thZ5ZdGsdPjre5K9SvOiL8XbuU74CvDmUetkmPI7ZEVv5ErIbvecdHSFrLNn2mf1fk8tUIP4iVBSrHOsnoSIynriljC4U3+4jFtcwXXwdlgfjzt5VAHNtWqMGLWSSJkPJyfvRekeXvLYs6CD0YfGC4RVXK98kUNXqWAcDWW/tVukjNbehI+NkJJt9vdwP9Bx/KCJWs7G1932j6lcKnZYIMHrTXyjt3ugs9k2YKNqS3Ch2MCeqsNHd8arET3tO0M/JDLcQjjvMN+kPUF+F0Mn2Uq1LvcxaS+6qw3Q64H7Zqdm4kdcA7gEcWNTtNkOwkfnHzNX9Y8lsrdqlmwAaYxsT6M7MJlr/IdTOpgWlgIXGiWpjMZoBejAYSb0umbgrQzq2VD64L+4ovhg7PZwmkGFbRvb1nECh+Nd3UjzELQxNnJNJ/JtKuFIeCRtYN78MEHYwpyAvIzGPVY9eQNhP+CP4opMbhW7nmoeAXHpG0PPgo8a0v2ZaYZWRehnWuZ3B6zi9touUVP12rfGUcDfGs+U7i8ZSqGHX6vXshhUEFoEmnnIpiDgyC/vZVBVZNVPvy2InyAetQUW7CsERfgbM/rFbOIcOtM94k3MXyFDv8KZx3edcRwuyMV9/Hk4KA5ko/gReJmwelVWG+f/vBNuLBH7EL4ZNoEuIqDUwoMLyLdCYzAN8FUjVylSya92cvwZdYcJxoPOrB7B/BpNxB9fQ6JcLBqI+tvivgFI9HoQseN18FqET5Me1yP/RjeEITPwR3Kg4IKV1zBmrf/BXxxw39rx6uTJX7y1Z9OEy6bJh35uzhMw9hq6Rj6BD5wui3DCcQipBiOI2JfaRcIA1EYD99w6rsdhtNpuwgfTN4YXJ2susMh8axae8Gqvy1iZO4L38oXgf5ov4moXRuNxJhMIwylJFnwYTx1Dh0nRHfwQTAxlvL7KMFLhSCb2BvYgMZivO7Ux3OTd9QQfMqlaSp2q1WD10g7C3wvMFmRqA3Q2MxSDp1RXSWKN/Nxvb7GsJ5u2f21j7qDSNZFq7njkyvMV15yAh6+muX1NnBtoEKWNEXhxKMemmVdUqtqwWe2mDfzcd8TB8EF+HD1HSgr+rmEbAdYlbk/0WUVjT98fjXfzeb79cfiybXkxNu1IvI4g+t+Gqyvg28aSkyEjYNMNVhcQkLht9lQ7wfNPTXegw+trIdP2b2k7SVGnjFA9BsJ6jLPH5EuHQrGEYxyKzcO94VPskuziJXdg8+GHr4LFyd4+Nq1VYPRg8zfcfkDa3boKUwTLj6SNC3OCycMn1M77ePKVA6fWgfodAMzzC213ogxHVic2j7t89d1T/jg/0C+ZRbvz3tra7Q9uAo+vKK31YjiSbQLEi47Wv6FSUyY0y5oR2OfNrL2qTxm81S4wLdYDdkYwA3xXxe9STtYqHd1OOvChbnK9l1yoVzC5ckb79PGVkoW12kffmw6Eg+5zhkSxSwrLhcRcoTgQ+o/2GmfsvvwieeFoYYj4W3XyhW/DfdN0D7kZ+p85HBn+MY+WE/+hu/Vw3fhqnIPX4VZ10rGHW40prdTiRZLQUVPmL9DU/kQPtG+io/pTJDpyK+U1Rz2m2liVY4pxl5p41/AJ9+O7MY+fKrpga0di05OjMr6YAS/LjV8yL6MUdrGfgtPXqWfC7ZPfTB5cTxSvpamzlbeNWFcn+3eoz/AKy2/bvIez+VwW+Lhe6s5joM1d4HnDm3mqMJPkjO97nTYbHLOwQyru4YP7yOaRRqJwpdNnvN+DF+ufSPf9cpDVji4L95S1One/hgnsSmyA2fDh15ebf0c7cI9FXWAGxktjUROT1qISewx7Uxa3dZknXLa8WHOSxaujdoH4S1V5/bg62l7AB/Bcxo+M51yejF3rgAffXKz31di/xF8vq0UrvNVOeZrMcIdCHpwYjE9Egc7oHtvopHt3krbSH2Y86KMMgrxArwyD58E6X37N3z9M+Cr0JCGtTSHb8y7+vsnAbvnXwffcVtFmpYGYqVA/2LmhJVO55QZsFqO3nGdmwoHfp4Trs1ER0eH5rgPZm2tZShKw+4ENkve0jbCYvcg7mifM3nNm91wxdmsOV/UynvYUVS8lzB6+Ham7fMlhVPwffRBi+ybZ5XNYpJiGaH6tCv5sqmvK91pm2KeDzFsRg07B431Hr5pjEwf5R9V8YleMU292OtjLZFUxpz2vCAvjgoLGDZTDo2a4210p9jQaSlpqtydMoCADALMilc0M902+7NCOaMiZMgmC3bYecm0syfJ+lXAN+GZPa22tRfGfl5o6sW8rVegDE7BF+l6wPgtI4rztA7lZHroz3IS3eHcvT9lgOZ/LYzFrntZXvjfvPVv/ALkuNyh99jBh/k934Gunxyepc926geOam3O1L7Igq3js2txB5xVfTnVutoFSA5z48reGHeAj+us6PvzKkahxoEBanfKcAbEkxQB5ESJBzgK3xB3iktg2oHSC+4CCXY0jtXJyA/8ie1rg85inzWdXx0fMgP/3iVIH1V3t0QnL37Iu4bNihYlbMy+ZvliEFx1uDHsWrwavs1GO5XscqntKHxIl9raUOi9hA1tOOKOBdOocxERrZfP7s6ADz6RCmP4kjpSlZDvUGDeOuz4YMzO8F8wLvhDVdMxTdgCZ8sRLxX5qv2CG+lVazZe5XBPU3dQhd6vtHHIAdGf5eRjYvzKuV4H+c7aqmt27P2n8GGolRl+Zk8f66Q8nX1XSSdEY97pmX/C9zF8EBDr9cLsKG4BclnVxNBH2cznbxPJIDJfNIJE/WPbR3taci8oKrdavDFp91t/3h8xusacAx+4DsRrw+bEjBX3K22N+BMe8o3tzd0ZF4GQsrGwFfCFVPwkncQILP6oP3LJY83dFk4Jn4C99sc8L545w2fjpWjWGpCGg6uBsCte06XUUYBPfwhfjI4mirdCvNS5K6EzFf3zQ3LMWhH4Luomv8B1FODDhKwlT8/Ab31+rVFUQpGJW/D0HcWy3ANyOsnxwT8cq/Ma45s0Il2dyrVjqOYodN75ddH0UbOgfQd8X95dCvBhoRffEkIvIS+IejU7/LwHXDxfNXkvh08xOQ/TOJlQc+5oneYtXvg7lR6OlqeZABRfIzne24waxdqnuVMUL2gZU+uOXje86lEJE/Wu0+LpjMkY3sqj8IG3iOS9//a58BZZxesvDw0avpIk6ZIug4/gO6d6jml2SEAt99IY39ssreEcbHt9MIeP6Mwpg1B0O2/kbSlk6J1K5qJ9UqMcrXV+rdybK/CN+ZlQynrtizhKt9bHj2M+c11delPAtmdUz2/BOesjtGcfjx96VvMBWDnWs+X+OlOdyHzI/GCWHphIUj3S2zycDhvD6SjUXHaw6RbrtcMhpSmYa0XZ3OQy7IKud6cNkOCJl77oHowAb8ekOfh4xqAxHMKQMSeJcAcW+AEYlp5aBoNG2fNuyEY3xDGmw2EDecxz0LsZPp0vyloW0h/ckU55so21J/x8Z/0BSY2HR2ENJZQlSKBvMb2vhRG1K6J6uep4sB29jJab1xQ7N2L6TBhz/5qqpfxWaEHrUngDGxxTjDZS9BW1NEUul/svYcjedtTmIcFM8BFhdEaPy1fAhzmPrOvY7/nU0Rtr31a6NrWKPB2EVPTB0Jobh/gWkKuRp0lon2jRGbkojqVfTW6LlWdz5A/dYRFMuS4iRIccIGZG834NNypyWk7Jj/m58TsK38cdVscHAJuNKyrBxitp1ORPaeV7SN4h6cc6AsSJYvznRxnTM9X9on6ms+T2Ic9pUDsuMLFSSmuX3LOZnwtnqph6dWi1h8YGLIZvrI8/CeLLgflXch18PNnSV5q8i/r+mgKdvhmO/IInLDMk44aECdNqCR8KWp/Vn6EPnBZdiOciX521zMlwx8CyuWwb3yI1YGt17Cx+PHyXiNW1rinKcAIOwpcY8XF+RUKB4zpMJDhs/dor+ImSbPeoeEh+e7FvhHeF5+Tkgin6WpXwoRBjuVu2QfkAtr5KjcI6bjUz+zLWDw8fx1LIYQT5/KwIXdpzzN9aes7L1DdS+mLb5P8+928gmjpDNuQLfK2DXkiSKyGn1bbalF28b9tRh2WihxMt7a1+vcFo3h8aX/t4CyMfvkOe5LLdc6xmr7TQ6tHR41XkPc/zzav4iMP1wq8cmMjjDzX9OR6lq9lg3p9v3leYIUel9lF+mshDDU3LcaklbsqGbU4d8EJo7UV9sBjyx8uldKlWOXvSk+Tb2lAe07Kj84Q5VZ/TEz9broDPd5iuLP2JNlQrH6esi3nLvnz9qX8HuRw+NWdTt6WnafKi5VTaKyY5fMpDqPJXvxHBc/ijwjt8wQ8mMD0tDyPl2UtpbfnQdd54Gj42fbIeG4s1BF+lhM9vPAGf/4MTs4gafrQ8aIQimfcSvk8/4V1HnRtEkCgYC6nycH+r7Qr4pOfTLGOpO9hEHmQaPNyfCrzCH2IljWiCJi/BtclCwubnR0PvCvio56ZCS4hnWViL03HbkyvZPc7wW8sVPS4qqeQ9Yu3FIsh7rWbuVyZmXyiaHsrYohabQJ6Hmz9wpK6+3TO3vplIy89cOiC5A1e6+Vo6ejjbd6EQd6J1uNytX/frFLpWfd8nrd5Nrqu01ZrUsim1Dmyea1n9gJbvukTeaTuRNRfsN2Z1+sO9v+2R9J/KlfBBuhaO879n8pzhwzd/JyF6Wq7v2FE6WmVPg+44Sx63iHE1fNh37On4h5uzudzQnOvkieouX4D7eHK99inln9lgH+ePQv8tD2u1vkZK+G6SEr6b5J/At995edbxdz2fHyYXtk3/0qLm1VLCd5OU8JVSSimllFKKSOnjbpISvpukhK+UUn6s/AdXUeFVlFaZFwAAAABJRU5ErkJggg==;strokeColor=#0000FF;" vertex="1" parent="1">
                    <mxGeometry x="9228" y="-2546" width="112.84" height="56.42" as="geometry"/>
                </mxCell>
                <mxCell id="r7BYOUneLajMH-3O8QyP-12" value="" style="ellipse;html=1;shape=endState;fillColor=#000000;strokeColor=#33FF33;" vertex="1" parent="1">
                    <mxGeometry x="9483" y="-2356.9999999999995" width="30" height="30" as="geometry"/>
                </mxCell>
                <mxCell id="r7BYOUneLajMH-3O8QyP-13" value="" style="group;strokeColor=none;fillColor=none;fontSize=11;fontColor=#000000;" vertex="1" connectable="0" parent="1">
                    <mxGeometry x="8980" y="-2500" width="108" height="70" as="geometry"/>
                </mxCell>
                <mxCell id="r7BYOUneLajMH-3O8QyP-14" value="" style="group" vertex="1" connectable="0" parent="r7BYOUneLajMH-3O8QyP-13">
                    <mxGeometry width="108" height="70" as="geometry"/>
                </mxCell>
                <mxCell id="r7BYOUneLajMH-3O8QyP-15" value="tb_negocio" style="shape=cylinder;whiteSpace=wrap;html=1;boundedLbl=1;backgroundOutline=1;" vertex="1" parent="r7BYOUneLajMH-3O8QyP-14">
                    <mxGeometry width="108" height="60.91579352679282" as="geometry"/>
                </mxCell>
                <mxCell id="r7BYOUneLajMH-3O8QyP-16" value="" style="edgeStyle=orthogonalEdgeStyle;rounded=0;orthogonalLoop=1;jettySize=auto;html=1;strokeColor=#000000;entryX=0;entryY=0.5;entryDx=0;entryDy=0;" edge="1" parent="1" source="r7BYOUneLajMH-3O8QyP-7" target="r7BYOUneLajMH-3O8QyP-10">
                    <mxGeometry relative="1" as="geometry">
                        <mxPoint x="9030" y="-2341" as="sourcePoint"/>
                        <mxPoint x="9186" y="-2341.9999999999995" as="targetPoint"/>
                    </mxGeometry>
                </mxCell>
                <mxCell id="r7BYOUneLajMH-3O8QyP-17" style="edgeStyle=none;html=1;exitX=1;exitY=0.5;exitDx=0;exitDy=0;" edge="1" parent="1" source="qZxZgLCe_RGcJAyx84jA-1" target="r7BYOUneLajMH-3O8QyP-5">
                    <mxGeometry relative="1" as="geometry">
                        <mxPoint x="8459.42" y="-2339.884159668699" as="sourcePoint"/>
                    </mxGeometry>
                </mxCell>
                <mxCell id="r7BYOUneLajMH-3O8QyP-19" style="edgeStyle=none;html=1;entryX=0.5;entryY=0;entryDx=0;entryDy=0;" edge="1" parent="1" source="r7BYOUneLajMH-3O8QyP-21" target="r7BYOUneLajMH-3O8QyP-22">
                    <mxGeometry relative="1" as="geometry"/>
                </mxCell>
                <mxCell id="r7BYOUneLajMH-3O8QyP-20" value="Não" style="edgeLabel;html=1;align=center;verticalAlign=middle;resizable=0;points=[];" vertex="1" connectable="0" parent="r7BYOUneLajMH-3O8QyP-19">
                    <mxGeometry x="-0.2796" relative="1" as="geometry">
                        <mxPoint as="offset"/>
                    </mxGeometry>
                </mxCell>
                <mxCell id="r7BYOUneLajMH-3O8QyP-21" value="&lt;font style=&quot;font-size: 12px;&quot;&gt;Válido?&lt;/font&gt;" style="strokeWidth=2;html=1;shape=mxgraph.flowchart.decision;whiteSpace=wrap;" vertex="1" parent="1">
                    <mxGeometry x="8651" y="-2264" width="78" height="60" as="geometry"/>
                </mxCell>
                <mxCell id="r7BYOUneLajMH-3O8QyP-22" value="" style="ellipse;html=1;shape=endState;fillColor=#000000;strokeColor=#33FF33;" vertex="1" parent="1">
                    <mxGeometry x="8675" y="-2165.9999999999995" width="30" height="30" as="geometry"/>
                </mxCell>
                <mxCell id="r7BYOUneLajMH-3O8QyP-23" style="edgeStyle=none;html=1;" edge="1" parent="1" source="r7BYOUneLajMH-3O8QyP-24" target="r7BYOUneLajMH-3O8QyP-12">
                    <mxGeometry relative="1" as="geometry"/>
                </mxCell>
                <mxCell id="qZxZgLCe_RGcJAyx84jA-3" style="html=1;entryX=0;entryY=0.5;entryDx=0;entryDy=0;fontFamily=Helvetica;fontSize=12;edgeStyle=orthogonalEdgeStyle;" edge="1" parent="1" source="r7BYOUneLajMH-3O8QyP-24" target="qZxZgLCe_RGcJAyx84jA-2">
                    <mxGeometry relative="1" as="geometry"/>
                </mxCell>
                <mxCell id="r7BYOUneLajMH-3O8QyP-24" value="&lt;div style=&quot;font-size: 14px; line-height: 19px;&quot;&gt;Enviar Response&lt;br&gt;&lt;/div&gt;" style="rounded=0;whiteSpace=wrap;html=1;fontFamily=Helvetica;" vertex="1" parent="1">
                    <mxGeometry x="9321" y="-2369" width="120" height="54" as="geometry"/>
                </mxCell>
                <mxCell id="r7BYOUneLajMH-3O8QyP-25" style="edgeStyle=none;html=1;entryX=0;entryY=0.5;entryDx=0;entryDy=0;" edge="1" parent="1" source="r7BYOUneLajMH-3O8QyP-27" target="r7BYOUneLajMH-3O8QyP-7">
                    <mxGeometry relative="1" as="geometry"/>
                </mxCell>
                <mxCell id="r7BYOUneLajMH-3O8QyP-26" style="edgeStyle=none;html=1;fontSize=12;" edge="1" parent="1" source="r7BYOUneLajMH-3O8QyP-27" target="r7BYOUneLajMH-3O8QyP-28">
                    <mxGeometry relative="1" as="geometry"/>
                </mxCell>
                <mxCell id="r7BYOUneLajMH-3O8QyP-27" value="&lt;div style=&quot;font-size: 14px; line-height: 19px;&quot;&gt;&lt;div style=&quot;line-height: 19px;&quot;&gt;Recuperar Dados&lt;/div&gt;&lt;/div&gt;" style="rounded=0;whiteSpace=wrap;html=1;fontFamily=Helvetica;" vertex="1" parent="1">
                    <mxGeometry x="8805" y="-2371.9999999999995" width="120" height="60" as="geometry"/>
                </mxCell>
                <mxCell id="r7BYOUneLajMH-3O8QyP-28" value="&lt;div style=&quot;line-height: 19px;&quot;&gt;&lt;div style=&quot;line-height: 19px;&quot;&gt;nome-componente&lt;/div&gt;&lt;div style=&quot;line-height: 19px;&quot;&gt;/v1/{path}&lt;/div&gt;&lt;/div&gt;" style="rounded=0;whiteSpace=wrap;html=1;fillColor=#0050ef;strokeColor=#001DBC;fontColor=#ffffff;fontFamily=Helvetica;" vertex="1" parent="1">
                    <mxGeometry x="8806" y="-2505" width="120" height="42" as="geometry"/>
                </mxCell>
                <mxCell id="qZxZgLCe_RGcJAyx84jA-1" value="topic-in" style="shape=image;verticalLabelPosition=bottom;verticalAlign=top;imageAspect=0;aspect=fixed;image=data:image/png,iVBORw0KGgoAAAANSUhEUgAAAT4AAACfCAMAAABX0UX9AAAAh1BMVEX+/v7///8AAAD7+/sEBAT4+PgICAjV1dXq6urt7e3FxcX19fUZGRmQkJDx8fFjY2OKioohISHd3d3l5eXHx8ezs7ODg4Nubm5YWFh0dHRKSkodHR0wMDCYmJiioqIWFhY8PDwlJSVcXFw5OTmpqalQUFDQ0NAqKiq9vb2lpaV8fHxFRUVycnLtZs8nAAAUUElEQVR4nO1diXaiShDtxUYUgwriEtdoNEbn/7/v1daIozEucV4SqZnkKGALl+pablUTpUq5WrT+v8/gR0sJ301SwneTHIVP63xz4WUph1LCd5OU8N0kXwzOp2iXt+OUlPDdJCV8N0kJXykXSKkLN0kJ301SwneblPCVUspvkf3ATB++3U+Ij+4/fcDJL/tBceHRky3hO1dK+G6SEr6b5EedbCmllFJKKaWUUsoxuTCeeajw5+9I9fghZ+Pxw0Ldm+WL4Xs0+VL44DD7FSf1c+QM+M4ZA4fR1gJ61qrHVNirrZZ8zOLnLcD4kOjdSBnAR12tmtScfUTs1A3wOYDMpu/zoQEZ9bJQO+u++ux+r7hIp62GyeVtHLkSvrPFqvqbMRUU+m3Mc/KQ8/dKeRXwKh5E0+iU+H0q6C6U0xODsNF/+mfwp6MfKAS8zmsgfFZ1AK7AT1v6hfgtQvc4+F0Nn3XRTGZuhR1HRX5vtHuYCXw1fEqL4QuM6U+y7GlheAJXTPVxpu8p9D6GFtGLZ6Jy04zSjnhseBKbwcMon5cLKQOkCKoS7E07lLA5hZ6EJvBb/Gj4XQ6fHouxG+uI6BYb2R5PXrMq4Tt9OPxvMnwvqbUWPw6/OzSdA5OV8J0+HH76JkC05pqZKtS+lJLfwDyV8J0+HJTtmeH7k8NnbW3EcXS3hO/04fCz5Mk7J57UInwqbTN8pfZ9erjuMXzt0G+0diWBc277tJBhWj7DgdJj0oIFQQzGErhMMGbhakdPNq128PnD8x9VtvETfCvBqr3C/Bfd76uwBu04P86iALCodFbe2BI+rZybyVR9WWOlQ7sxJyEV09PsTBROaOTwXbWerasRRTcOwWR1PfkNv3mpBM3ESU4TNCf19XiBIQttqFLKyzYuUvG6OWWg+1kMEz1y6rw1g//iQv4fYcZlS8pWCQKexQG8QPQGXO8g+Kx9XezIfDN6d4hewQ5+/A2/HD5OMipCkrIeInm1SCxFgmQOw55nAjmdM/P0PAP4I+E796Q1g0Mcgaf7KF8LTNDRgh5YvXRr/pZRosDV2N9FaeUhxdnwATw6D15y/Mx0Td6WDrK1rQkK6PIRo9T+NvSugM8SgFl7H79ZVUeOi5WQAw8QvT34kF1tOvvb6Pwr4CMTptNBw6uVMS/jmGIWnrx6TbWQwtzmspJ51dHvhO+aTybjJUEzbb6GShWmpesbXz0ar6ud1ox0D2Qb21+Welx/MRAEpxTXPYOxK/oEcMwVdrfNFOloHW6MhDjZ54HLz5KrLwbncMo6ReAV4OsKfE2MEdHcaY/fptQ+/0GIXxg+1L7iDrflCvA0VdT9Z5WLRzyZ32J1mJMJIWNvgtXlTYfw0uIJaeo9vGXMe0oBvv1boOM2B4UbRhUjbf0kTiQ98FHa8WVae3WyS5Sj1XHSycZPId4wR/FBpL9v29LH8CUB130z7Uk+a+vio6uH8CXzeX/e7zfD650Y6l51wExGFYZZLedzHDK+UaXvKOfAZz1HyrUk2Jgcwid1z+n18IFELRwjgG9N4MzqPOSwpr4ZfP7iNXXmJlOEaUso5U6B4EP8JorzW5y8WQ7f39YW4cMwpxFeaYbRQkQ945uVqkoKf8a0o1su9R4i5CcmD+mk2ZCgefBaQx7Q4Q6roxdDADZ1FDmyRE57Ojo9Bd91p4Q5+Ltv9jJ0g747fMpWB1NJJxjBp5R8AAJr+5KydSAeZD46EeV7jg58/VfABzfMdyxNq98cPkhcdfwUmLwxktmB0SvzUeABm2SEKmabAKQQtujas1Bb3cOw+Wb4YLLWDXcsvUySBMNMD9+36xlB+CKdPO/SXclp4eUgpLmbbcmG46ZZnXqIOkt/6Opz+PIC3e6d1Ov2xR+guG2EAs06rpMA+OoF7SsczgFmcWh2bfwdvjR4T8gRPl1t77i+IrGyDAGMOW8VzuD56XXcJzIfMepHh1nHIXzKZzBkCtgriQc9SnhZSGpImhjnHcJHUSEe6PbYWrv7mvw1Box3hk9XG7nmFVkVDGFSvJAgIDNewQbUwk74qauT8ImK2MhxFuhwtYOW6/PKYveF9opjeuIj9+GDOCZyNuLxcEGF9thZ5ZdGsdPjre5K9SvOiL8XbuU74CvDmUetkmPI7ZEVv5ErIbvecdHSFrLNn2mf1fk8tUIP4iVBSrHOsnoSIynriljC4U3+4jFtcwXXwdlgfjzt5VAHNtWqMGLWSSJkPJyfvRekeXvLYs6CD0YfGC4RVXK98kUNXqWAcDWW/tVukjNbehI+NkJJt9vdwP9Bx/KCJWs7G1932j6lcKnZYIMHrTXyjt3ugs9k2YKNqS3Ch2MCeqsNHd8arET3tO0M/JDLcQjjvMN+kPUF+F0Mn2Uq1LvcxaS+6qw3Q64H7Zqdm4kdcA7gEcWNTtNkOwkfnHzNX9Y8lsrdqlmwAaYxsT6M7MJlr/IdTOpgWlgIXGiWpjMZoBejAYSb0umbgrQzq2VD64L+4ovhg7PZwmkGFbRvb1nECh+Nd3UjzELQxNnJNJ/JtKuFIeCRtYN78MEHYwpyAvIzGPVY9eQNhP+CP4opMbhW7nmoeAXHpG0PPgo8a0v2ZaYZWRehnWuZ3B6zi9touUVP12rfGUcDfGs+U7i8ZSqGHX6vXshhUEFoEmnnIpiDgyC/vZVBVZNVPvy2InyAetQUW7CsERfgbM/rFbOIcOtM94k3MXyFDv8KZx3edcRwuyMV9/Hk4KA5ko/gReJmwelVWG+f/vBNuLBH7EL4ZNoEuIqDUwoMLyLdCYzAN8FUjVylSya92cvwZdYcJxoPOrB7B/BpNxB9fQ6JcLBqI+tvivgFI9HoQseN18FqET5Me1yP/RjeEITPwR3Kg4IKV1zBmrf/BXxxw39rx6uTJX7y1Z9OEy6bJh35uzhMw9hq6Rj6BD5wui3DCcQipBiOI2JfaRcIA1EYD99w6rsdhtNpuwgfTN4YXJ2susMh8axae8Gqvy1iZO4L38oXgf5ov4moXRuNxJhMIwylJFnwYTx1Dh0nRHfwQTAxlvL7KMFLhSCb2BvYgMZivO7Ux3OTd9QQfMqlaSp2q1WD10g7C3wvMFmRqA3Q2MxSDp1RXSWKN/Nxvb7GsJ5u2f21j7qDSNZFq7njkyvMV15yAh6+muX1NnBtoEKWNEXhxKMemmVdUqtqwWe2mDfzcd8TB8EF+HD1HSgr+rmEbAdYlbk/0WUVjT98fjXfzeb79cfiybXkxNu1IvI4g+t+Gqyvg28aSkyEjYNMNVhcQkLht9lQ7wfNPTXegw+trIdP2b2k7SVGnjFA9BsJ6jLPH5EuHQrGEYxyKzcO94VPskuziJXdg8+GHr4LFyd4+Nq1VYPRg8zfcfkDa3boKUwTLj6SNC3OCycMn1M77ePKVA6fWgfodAMzzC213ogxHVic2j7t89d1T/jg/0C+ZRbvz3tra7Q9uAo+vKK31YjiSbQLEi47Wv6FSUyY0y5oR2OfNrL2qTxm81S4wLdYDdkYwA3xXxe9STtYqHd1OOvChbnK9l1yoVzC5ckb79PGVkoW12kffmw6Eg+5zhkSxSwrLhcRcoTgQ+o/2GmfsvvwieeFoYYj4W3XyhW/DfdN0D7kZ+p85HBn+MY+WE/+hu/Vw3fhqnIPX4VZ10rGHW40prdTiRZLQUVPmL9DU/kQPtG+io/pTJDpyK+U1Rz2m2liVY4pxl5p41/AJ9+O7MY+fKrpga0di05OjMr6YAS/LjV8yL6MUdrGfgtPXqWfC7ZPfTB5cTxSvpamzlbeNWFcn+3eoz/AKy2/bvIez+VwW+Lhe6s5joM1d4HnDm3mqMJPkjO97nTYbHLOwQyru4YP7yOaRRqJwpdNnvN+DF+ufSPf9cpDVji4L95S1One/hgnsSmyA2fDh15ebf0c7cI9FXWAGxktjUROT1qISewx7Uxa3dZknXLa8WHOSxaujdoH4S1V5/bg62l7AB/Bcxo+M51yejF3rgAffXKz31di/xF8vq0UrvNVOeZrMcIdCHpwYjE9Egc7oHtvopHt3krbSH2Y86KMMgrxArwyD58E6X37N3z9M+Cr0JCGtTSHb8y7+vsnAbvnXwffcVtFmpYGYqVA/2LmhJVO55QZsFqO3nGdmwoHfp4Trs1ER0eH5rgPZm2tZShKw+4ENkve0jbCYvcg7mifM3nNm91wxdmsOV/UynvYUVS8lzB6+Ham7fMlhVPwffRBi+ybZ5XNYpJiGaH6tCv5sqmvK91pm2KeDzFsRg07B431Hr5pjEwf5R9V8YleMU292OtjLZFUxpz2vCAvjgoLGDZTDo2a4210p9jQaSlpqtydMoCADALMilc0M902+7NCOaMiZMgmC3bYecm0syfJ+lXAN+GZPa22tRfGfl5o6sW8rVegDE7BF+l6wPgtI4rztA7lZHroz3IS3eHcvT9lgOZ/LYzFrntZXvjfvPVv/ALkuNyh99jBh/k934Gunxyepc926geOam3O1L7Igq3js2txB5xVfTnVutoFSA5z48reGHeAj+us6PvzKkahxoEBanfKcAbEkxQB5ESJBzgK3xB3iktg2oHSC+4CCXY0jtXJyA/8ie1rg85inzWdXx0fMgP/3iVIH1V3t0QnL37Iu4bNihYlbMy+ZvliEFx1uDHsWrwavs1GO5XscqntKHxIl9raUOi9hA1tOOKOBdOocxERrZfP7s6ADz6RCmP4kjpSlZDvUGDeOuz4YMzO8F8wLvhDVdMxTdgCZ8sRLxX5qv2CG+lVazZe5XBPU3dQhd6vtHHIAdGf5eRjYvzKuV4H+c7aqmt27P2n8GGolRl+Zk8f66Q8nX1XSSdEY97pmX/C9zF8EBDr9cLsKG4BclnVxNBH2cznbxPJIDJfNIJE/WPbR3taci8oKrdavDFp91t/3h8xusacAx+4DsRrw+bEjBX3K22N+BMe8o3tzd0ZF4GQsrGwFfCFVPwkncQILP6oP3LJY83dFk4Jn4C99sc8L545w2fjpWjWGpCGg6uBsCte06XUUYBPfwhfjI4mirdCvNS5K6EzFf3zQ3LMWhH4Luomv8B1FODDhKwlT8/Ab31+rVFUQpGJW/D0HcWy3ANyOsnxwT8cq/Ma45s0Il2dyrVjqOYodN75ddH0UbOgfQd8X95dCvBhoRffEkIvIS+IejU7/LwHXDxfNXkvh08xOQ/TOJlQc+5oneYtXvg7lR6OlqeZABRfIzne24waxdqnuVMUL2gZU+uOXje86lEJE/Wu0+LpjMkY3sqj8IG3iOS9//a58BZZxesvDw0avpIk6ZIug4/gO6d6jml2SEAt99IY39ssreEcbHt9MIeP6Mwpg1B0O2/kbSlk6J1K5qJ9UqMcrXV+rdybK/CN+ZlQynrtizhKt9bHj2M+c11delPAtmdUz2/BOesjtGcfjx96VvMBWDnWs+X+OlOdyHzI/GCWHphIUj3S2zycDhvD6SjUXHaw6RbrtcMhpSmYa0XZ3OQy7IKud6cNkOCJl77oHowAb8ekOfh4xqAxHMKQMSeJcAcW+AEYlp5aBoNG2fNuyEY3xDGmw2EDecxz0LsZPp0vyloW0h/ckU55so21J/x8Z/0BSY2HR2ENJZQlSKBvMb2vhRG1K6J6uep4sB29jJab1xQ7N2L6TBhz/5qqpfxWaEHrUngDGxxTjDZS9BW1NEUul/svYcjedtTmIcFM8BFhdEaPy1fAhzmPrOvY7/nU0Rtr31a6NrWKPB2EVPTB0Jobh/gWkKuRp0lon2jRGbkojqVfTW6LlWdz5A/dYRFMuS4iRIccIGZG834NNypyWk7Jj/m58TsK38cdVscHAJuNKyrBxitp1ORPaeV7SN4h6cc6AsSJYvznRxnTM9X9on6ms+T2Ic9pUDsuMLFSSmuX3LOZnwtnqph6dWi1h8YGLIZvrI8/CeLLgflXch18PNnSV5q8i/r+mgKdvhmO/IInLDMk44aECdNqCR8KWp/Vn6EPnBZdiOciX521zMlwx8CyuWwb3yI1YGt17Cx+PHyXiNW1rinKcAIOwpcY8XF+RUKB4zpMJDhs/dor+ImSbPeoeEh+e7FvhHeF5+Tkgin6WpXwoRBjuVu2QfkAtr5KjcI6bjUz+zLWDw8fx1LIYQT5/KwIXdpzzN9aes7L1DdS+mLb5P8+928gmjpDNuQLfK2DXkiSKyGn1bbalF28b9tRh2WihxMt7a1+vcFo3h8aX/t4CyMfvkOe5LLdc6xmr7TQ6tHR41XkPc/zzav4iMP1wq8cmMjjDzX9OR6lq9lg3p9v3leYIUel9lF+mshDDU3LcaklbsqGbU4d8EJo7UV9sBjyx8uldKlWOXvSk+Tb2lAe07Kj84Q5VZ/TEz9broDPd5iuLP2JNlQrH6esi3nLvnz9qX8HuRw+NWdTt6WnafKi5VTaKyY5fMpDqPJXvxHBc/ijwjt8wQ8mMD0tDyPl2UtpbfnQdd54Gj42fbIeG4s1BF+lhM9vPAGf/4MTs4gafrQ8aIQimfcSvk8/4V1HnRtEkCgYC6nycH+r7Qr4pOfTLGOpO9hEHmQaPNyfCrzCH2IljWiCJi/BtclCwubnR0PvCvio56ZCS4hnWViL03HbkyvZPc7wW8sVPS4qqeQ9Yu3FIsh7rWbuVyZmXyiaHsrYohabQJ6Hmz9wpK6+3TO3vplIy89cOiC5A1e6+Vo6ejjbd6EQd6J1uNytX/frFLpWfd8nrd5Nrqu01ZrUsim1Dmyea1n9gJbvukTeaTuRNRfsN2Z1+sO9v+2R9J/KlfBBuhaO879n8pzhwzd/JyF6Wq7v2FE6WmVPg+44Sx63iHE1fNh37On4h5uzudzQnOvkieouX4D7eHK99inln9lgH+ePQv8tD2u1vkZK+G6SEr6b5J/At995edbxdz2fHyYXtk3/0qLm1VLCd5OU8JVSSimllFKKSOnjbpISvpukhK+UUn6s/AdXUeFVlFaZFwAAAABJRU5ErkJggg==;strokeColor=#0000FF;movable=1;resizable=1;rotatable=1;deletable=1;editable=1;locked=0;connectable=1;" vertex="1" parent="1">
                    <mxGeometry x="8400" y="-2368.4200000000005" width="112.84" height="56.42" as="geometry"/>
                </mxCell>
                <mxCell id="qZxZgLCe_RGcJAyx84jA-2" value="topic-out" style="shape=image;verticalLabelPosition=bottom;verticalAlign=top;imageAspect=0;aspect=fixed;image=data:image/png,iVBORw0KGgoAAAANSUhEUgAAAT4AAACfCAMAAABX0UX9AAAAh1BMVEX+/v7///8AAAD7+/sEBAT4+PgICAjV1dXq6urt7e3FxcX19fUZGRmQkJDx8fFjY2OKioohISHd3d3l5eXHx8ezs7ODg4Nubm5YWFh0dHRKSkodHR0wMDCYmJiioqIWFhY8PDwlJSVcXFw5OTmpqalQUFDQ0NAqKiq9vb2lpaV8fHxFRUVycnLtZs8nAAAUUElEQVR4nO1diXaiShDtxUYUgwriEtdoNEbn/7/v1daIozEucV4SqZnkKGALl+pablUTpUq5WrT+v8/gR0sJ301SwneTHIVP63xz4WUph1LCd5OU8N0kXwzOp2iXt+OUlPDdJCV8N0kJXykXSKkLN0kJ301SwneblPCVUspvkf3ATB++3U+Ij+4/fcDJL/tBceHRky3hO1dK+G6SEr6b5EedbCmllFJKKaWUUsoxuTCeeajw5+9I9fghZ+Pxw0Ldm+WL4Xs0+VL44DD7FSf1c+QM+M4ZA4fR1gJ61qrHVNirrZZ8zOLnLcD4kOjdSBnAR12tmtScfUTs1A3wOYDMpu/zoQEZ9bJQO+u++ux+r7hIp62GyeVtHLkSvrPFqvqbMRUU+m3Mc/KQ8/dKeRXwKh5E0+iU+H0q6C6U0xODsNF/+mfwp6MfKAS8zmsgfFZ1AK7AT1v6hfgtQvc4+F0Nn3XRTGZuhR1HRX5vtHuYCXw1fEqL4QuM6U+y7GlheAJXTPVxpu8p9D6GFtGLZ6Jy04zSjnhseBKbwcMon5cLKQOkCKoS7E07lLA5hZ6EJvBb/Gj4XQ6fHouxG+uI6BYb2R5PXrMq4Tt9OPxvMnwvqbUWPw6/OzSdA5OV8J0+HH76JkC05pqZKtS+lJLfwDyV8J0+HJTtmeH7k8NnbW3EcXS3hO/04fCz5Mk7J57UInwqbTN8pfZ9erjuMXzt0G+0diWBc277tJBhWj7DgdJj0oIFQQzGErhMMGbhakdPNq128PnD8x9VtvETfCvBqr3C/Bfd76uwBu04P86iALCodFbe2BI+rZybyVR9WWOlQ7sxJyEV09PsTBROaOTwXbWerasRRTcOwWR1PfkNv3mpBM3ESU4TNCf19XiBIQttqFLKyzYuUvG6OWWg+1kMEz1y6rw1g//iQv4fYcZlS8pWCQKexQG8QPQGXO8g+Kx9XezIfDN6d4hewQ5+/A2/HD5OMipCkrIeInm1SCxFgmQOw55nAjmdM/P0PAP4I+E796Q1g0Mcgaf7KF8LTNDRgh5YvXRr/pZRosDV2N9FaeUhxdnwATw6D15y/Mx0Td6WDrK1rQkK6PIRo9T+NvSugM8SgFl7H79ZVUeOi5WQAw8QvT34kF1tOvvb6Pwr4CMTptNBw6uVMS/jmGIWnrx6TbWQwtzmspJ51dHvhO+aTybjJUEzbb6GShWmpesbXz0ar6ud1ox0D2Qb21+Welx/MRAEpxTXPYOxK/oEcMwVdrfNFOloHW6MhDjZ54HLz5KrLwbncMo6ReAV4OsKfE2MEdHcaY/fptQ+/0GIXxg+1L7iDrflCvA0VdT9Z5WLRzyZ32J1mJMJIWNvgtXlTYfw0uIJaeo9vGXMe0oBvv1boOM2B4UbRhUjbf0kTiQ98FHa8WVae3WyS5Sj1XHSycZPId4wR/FBpL9v29LH8CUB130z7Uk+a+vio6uH8CXzeX/e7zfD650Y6l51wExGFYZZLedzHDK+UaXvKOfAZz1HyrUk2Jgcwid1z+n18IFELRwjgG9N4MzqPOSwpr4ZfP7iNXXmJlOEaUso5U6B4EP8JorzW5y8WQ7f39YW4cMwpxFeaYbRQkQ945uVqkoKf8a0o1su9R4i5CcmD+mk2ZCgefBaQx7Q4Q6roxdDADZ1FDmyRE57Ojo9Bd91p4Q5+Ltv9jJ0g747fMpWB1NJJxjBp5R8AAJr+5KydSAeZD46EeV7jg58/VfABzfMdyxNq98cPkhcdfwUmLwxktmB0SvzUeABm2SEKmabAKQQtujas1Bb3cOw+Wb4YLLWDXcsvUySBMNMD9+36xlB+CKdPO/SXclp4eUgpLmbbcmG46ZZnXqIOkt/6Opz+PIC3e6d1Ov2xR+guG2EAs06rpMA+OoF7SsczgFmcWh2bfwdvjR4T8gRPl1t77i+IrGyDAGMOW8VzuD56XXcJzIfMepHh1nHIXzKZzBkCtgriQc9SnhZSGpImhjnHcJHUSEe6PbYWrv7mvw1Box3hk9XG7nmFVkVDGFSvJAgIDNewQbUwk74qauT8ImK2MhxFuhwtYOW6/PKYveF9opjeuIj9+GDOCZyNuLxcEGF9thZ5ZdGsdPjre5K9SvOiL8XbuU74CvDmUetkmPI7ZEVv5ErIbvecdHSFrLNn2mf1fk8tUIP4iVBSrHOsnoSIynriljC4U3+4jFtcwXXwdlgfjzt5VAHNtWqMGLWSSJkPJyfvRekeXvLYs6CD0YfGC4RVXK98kUNXqWAcDWW/tVukjNbehI+NkJJt9vdwP9Bx/KCJWs7G1932j6lcKnZYIMHrTXyjt3ugs9k2YKNqS3Ch2MCeqsNHd8arET3tO0M/JDLcQjjvMN+kPUF+F0Mn2Uq1LvcxaS+6qw3Q64H7Zqdm4kdcA7gEcWNTtNkOwkfnHzNX9Y8lsrdqlmwAaYxsT6M7MJlr/IdTOpgWlgIXGiWpjMZoBejAYSb0umbgrQzq2VD64L+4ovhg7PZwmkGFbRvb1nECh+Nd3UjzELQxNnJNJ/JtKuFIeCRtYN78MEHYwpyAvIzGPVY9eQNhP+CP4opMbhW7nmoeAXHpG0PPgo8a0v2ZaYZWRehnWuZ3B6zi9touUVP12rfGUcDfGs+U7i8ZSqGHX6vXshhUEFoEmnnIpiDgyC/vZVBVZNVPvy2InyAetQUW7CsERfgbM/rFbOIcOtM94k3MXyFDv8KZx3edcRwuyMV9/Hk4KA5ko/gReJmwelVWG+f/vBNuLBH7EL4ZNoEuIqDUwoMLyLdCYzAN8FUjVylSya92cvwZdYcJxoPOrB7B/BpNxB9fQ6JcLBqI+tvivgFI9HoQseN18FqET5Me1yP/RjeEITPwR3Kg4IKV1zBmrf/BXxxw39rx6uTJX7y1Z9OEy6bJh35uzhMw9hq6Rj6BD5wui3DCcQipBiOI2JfaRcIA1EYD99w6rsdhtNpuwgfTN4YXJ2susMh8axae8Gqvy1iZO4L38oXgf5ov4moXRuNxJhMIwylJFnwYTx1Dh0nRHfwQTAxlvL7KMFLhSCb2BvYgMZivO7Ux3OTd9QQfMqlaSp2q1WD10g7C3wvMFmRqA3Q2MxSDp1RXSWKN/Nxvb7GsJ5u2f21j7qDSNZFq7njkyvMV15yAh6+muX1NnBtoEKWNEXhxKMemmVdUqtqwWe2mDfzcd8TB8EF+HD1HSgr+rmEbAdYlbk/0WUVjT98fjXfzeb79cfiybXkxNu1IvI4g+t+Gqyvg28aSkyEjYNMNVhcQkLht9lQ7wfNPTXegw+trIdP2b2k7SVGnjFA9BsJ6jLPH5EuHQrGEYxyKzcO94VPskuziJXdg8+GHr4LFyd4+Nq1VYPRg8zfcfkDa3boKUwTLj6SNC3OCycMn1M77ePKVA6fWgfodAMzzC213ogxHVic2j7t89d1T/jg/0C+ZRbvz3tra7Q9uAo+vKK31YjiSbQLEi47Wv6FSUyY0y5oR2OfNrL2qTxm81S4wLdYDdkYwA3xXxe9STtYqHd1OOvChbnK9l1yoVzC5ckb79PGVkoW12kffmw6Eg+5zhkSxSwrLhcRcoTgQ+o/2GmfsvvwieeFoYYj4W3XyhW/DfdN0D7kZ+p85HBn+MY+WE/+hu/Vw3fhqnIPX4VZ10rGHW40prdTiRZLQUVPmL9DU/kQPtG+io/pTJDpyK+U1Rz2m2liVY4pxl5p41/AJ9+O7MY+fKrpga0di05OjMr6YAS/LjV8yL6MUdrGfgtPXqWfC7ZPfTB5cTxSvpamzlbeNWFcn+3eoz/AKy2/bvIez+VwW+Lhe6s5joM1d4HnDm3mqMJPkjO97nTYbHLOwQyru4YP7yOaRRqJwpdNnvN+DF+ufSPf9cpDVji4L95S1One/hgnsSmyA2fDh15ebf0c7cI9FXWAGxktjUROT1qISewx7Uxa3dZknXLa8WHOSxaujdoH4S1V5/bg62l7AB/Bcxo+M51yejF3rgAffXKz31di/xF8vq0UrvNVOeZrMcIdCHpwYjE9Egc7oHtvopHt3krbSH2Y86KMMgrxArwyD58E6X37N3z9M+Cr0JCGtTSHb8y7+vsnAbvnXwffcVtFmpYGYqVA/2LmhJVO55QZsFqO3nGdmwoHfp4Trs1ER0eH5rgPZm2tZShKw+4ENkve0jbCYvcg7mifM3nNm91wxdmsOV/UynvYUVS8lzB6+Ham7fMlhVPwffRBi+ybZ5XNYpJiGaH6tCv5sqmvK91pm2KeDzFsRg07B431Hr5pjEwf5R9V8YleMU292OtjLZFUxpz2vCAvjgoLGDZTDo2a4210p9jQaSlpqtydMoCADALMilc0M902+7NCOaMiZMgmC3bYecm0syfJ+lXAN+GZPa22tRfGfl5o6sW8rVegDE7BF+l6wPgtI4rztA7lZHroz3IS3eHcvT9lgOZ/LYzFrntZXvjfvPVv/ALkuNyh99jBh/k934Gunxyepc926geOam3O1L7Igq3js2txB5xVfTnVutoFSA5z48reGHeAj+us6PvzKkahxoEBanfKcAbEkxQB5ESJBzgK3xB3iktg2oHSC+4CCXY0jtXJyA/8ie1rg85inzWdXx0fMgP/3iVIH1V3t0QnL37Iu4bNihYlbMy+ZvliEFx1uDHsWrwavs1GO5XscqntKHxIl9raUOi9hA1tOOKOBdOocxERrZfP7s6ADz6RCmP4kjpSlZDvUGDeOuz4YMzO8F8wLvhDVdMxTdgCZ8sRLxX5qv2CG+lVazZe5XBPU3dQhd6vtHHIAdGf5eRjYvzKuV4H+c7aqmt27P2n8GGolRl+Zk8f66Q8nX1XSSdEY97pmX/C9zF8EBDr9cLsKG4BclnVxNBH2cznbxPJIDJfNIJE/WPbR3taci8oKrdavDFp91t/3h8xusacAx+4DsRrw+bEjBX3K22N+BMe8o3tzd0ZF4GQsrGwFfCFVPwkncQILP6oP3LJY83dFk4Jn4C99sc8L545w2fjpWjWGpCGg6uBsCte06XUUYBPfwhfjI4mirdCvNS5K6EzFf3zQ3LMWhH4Luomv8B1FODDhKwlT8/Ab31+rVFUQpGJW/D0HcWy3ANyOsnxwT8cq/Ma45s0Il2dyrVjqOYodN75ddH0UbOgfQd8X95dCvBhoRffEkIvIS+IejU7/LwHXDxfNXkvh08xOQ/TOJlQc+5oneYtXvg7lR6OlqeZABRfIzne24waxdqnuVMUL2gZU+uOXje86lEJE/Wu0+LpjMkY3sqj8IG3iOS9//a58BZZxesvDw0avpIk6ZIug4/gO6d6jml2SEAt99IY39ssreEcbHt9MIeP6Mwpg1B0O2/kbSlk6J1K5qJ9UqMcrXV+rdybK/CN+ZlQynrtizhKt9bHj2M+c11delPAtmdUz2/BOesjtGcfjx96VvMBWDnWs+X+OlOdyHzI/GCWHphIUj3S2zycDhvD6SjUXHaw6RbrtcMhpSmYa0XZ3OQy7IKud6cNkOCJl77oHowAb8ekOfh4xqAxHMKQMSeJcAcW+AEYlp5aBoNG2fNuyEY3xDGmw2EDecxz0LsZPp0vyloW0h/ckU55so21J/x8Z/0BSY2HR2ENJZQlSKBvMb2vhRG1K6J6uep4sB29jJab1xQ7N2L6TBhz/5qqpfxWaEHrUngDGxxTjDZS9BW1NEUul/svYcjedtTmIcFM8BFhdEaPy1fAhzmPrOvY7/nU0Rtr31a6NrWKPB2EVPTB0Jobh/gWkKuRp0lon2jRGbkojqVfTW6LlWdz5A/dYRFMuS4iRIccIGZG834NNypyWk7Jj/m58TsK38cdVscHAJuNKyrBxitp1ORPaeV7SN4h6cc6AsSJYvznRxnTM9X9on6ms+T2Ic9pUDsuMLFSSmuX3LOZnwtnqph6dWi1h8YGLIZvrI8/CeLLgflXch18PNnSV5q8i/r+mgKdvhmO/IInLDMk44aECdNqCR8KWp/Vn6EPnBZdiOciX521zMlwx8CyuWwb3yI1YGt17Cx+PHyXiNW1rinKcAIOwpcY8XF+RUKB4zpMJDhs/dor+ImSbPeoeEh+e7FvhHeF5+Tkgin6WpXwoRBjuVu2QfkAtr5KjcI6bjUz+zLWDw8fx1LIYQT5/KwIXdpzzN9aes7L1DdS+mLb5P8+928gmjpDNuQLfK2DXkiSKyGn1bbalF28b9tRh2WihxMt7a1+vcFo3h8aX/t4CyMfvkOe5LLdc6xmr7TQ6tHR41XkPc/zzav4iMP1wq8cmMjjDzX9OR6lq9lg3p9v3leYIUel9lF+mshDDU3LcaklbsqGbU4d8EJo7UV9sBjyx8uldKlWOXvSk+Tb2lAe07Kj84Q5VZ/TEz9broDPd5iuLP2JNlQrH6esi3nLvnz9qX8HuRw+NWdTt6WnafKi5VTaKyY5fMpDqPJXvxHBc/ijwjt8wQ8mMD0tDyPl2UtpbfnQdd54Gj42fbIeG4s1BF+lhM9vPAGf/4MTs4gafrQ8aIQimfcSvk8/4V1HnRtEkCgYC6nycH+r7Qr4pOfTLGOpO9hEHmQaPNyfCrzCH2IljWiCJi/BtclCwubnR0PvCvio56ZCS4hnWViL03HbkyvZPc7wW8sVPS4qqeQ9Yu3FIsh7rWbuVyZmXyiaHsrYohabQJ6Hmz9wpK6+3TO3vplIy89cOiC5A1e6+Vo6ejjbd6EQd6J1uNytX/frFLpWfd8nrd5Nrqu01ZrUsim1Dmyea1n9gJbvukTeaTuRNRfsN2Z1+sO9v+2R9J/KlfBBuhaO879n8pzhwzd/JyF6Wq7v2FE6WmVPg+44Sx63iHE1fNh37On4h5uzudzQnOvkieouX4D7eHK99inln9lgH+ePQv8tD2u1vkZK+G6SEr6b5J/At995edbxdz2fHyYXtk3/0qLm1VLCd5OU8JVSSimllFKKSOnjbpISvpukhK+UUn6s/AdXUeFVlFaZFwAAAABJRU5ErkJggg==;strokeColor=#0000FF;" vertex="1" parent="1">
                    <mxGeometry x="9420" y="-2540" width="112.84" height="56.42" as="geometry"/>
                </mxCell>
            </root>
        </mxGraphModel>
    </diagram>
</mxfile>